<svg width="150" height="140" viewBox="0 0 150 140" fill="none" xmlns="http://www.w3.org/2000/svg">
<path d="M42.4714 126.166C30.2932 126.166 20.4204 119.662 20.4204 111.64C20.4204 103.618 30.2932 97.1146 42.4714 97.1146C54.6495 97.1146 64.5223 103.618 64.5223 111.64C64.5223 119.662 54.6495 126.166 42.4714 126.166Z" fill="#A6D2FF"/>
<path d="M42.4714 119.227C34.7215 119.227 28.439 115.686 28.439 111.319C28.439 106.949 34.7215 103.409 42.4714 103.409C50.2213 103.409 56.5038 106.949 56.5038 111.319C56.5038 115.686 50.2213 119.227 42.4714 119.227Z" fill="white"/>
<path opacity="0.1" d="M42.4714 126.166C30.2932 126.166 20.4204 119.662 20.4204 111.64C20.4204 103.618 30.2932 97.1146 42.4714 97.1146C54.6495 97.1146 64.5223 103.618 64.5223 111.64C64.5223 119.662 54.6495 126.166 42.4714 126.166Z" fill="black"/>
<path d="M63.6644 115.004C59.5268 117.174 54.006 118.419 48.4853 118.419C37.4598 118.419 26.4343 113.447 26.4343 106.093V101.164L48.4853 110.341L70.5363 101.164V106.093C70.5363 109.766 67.7879 112.843 63.6644 115.004Z" fill="#40A0FF"/>
<path d="M48.4853 110.672C36.3071 110.672 26.4343 104.168 26.4343 96.1462C26.4343 88.1242 36.3071 81.6206 48.4853 81.6206C60.6634 81.6206 70.5363 88.1242 70.5363 96.1462C70.5363 104.168 60.6634 110.672 48.4853 110.672Z" fill="#A6D2FF"/>
<path d="M48.4853 103.733C40.7354 103.733 34.4529 100.192 34.4529 95.8247C34.4529 91.4554 40.7354 87.915 48.4853 87.915C56.2352 87.915 62.5177 91.4554 62.5177 95.8247C62.5177 100.192 56.2352 103.733 48.4853 103.733Z" fill="white"/>
<path d="M72.5411 139.723C112.397 139.723 144.708 108.507 144.708 70C144.708 31.4934 112.397 0.276688 72.5411 0.276688C32.6849 0.276688 0.374268 31.4934 0.374268 70C0.374268 108.507 32.6849 139.723 72.5411 139.723Z" fill="#D2BBFF"/>
<path d="M129.1 31.1409L5.53223 52.3193L15.7238 111.205L140.358 89.6058L129.098 31.1409H129.1ZM101.296 16.6229L36.1951 39.6316L36.4697 40.1526L104.22 22.7528L101.3 16.6229H101.296ZM101.296 26.7464L40.1943 42.5736L40.6133 43.2843L103.932 32.423L101.298 26.7464H101.296Z" fill="#62A321"/>
<path opacity="0.1" d="M101.297 16.6229L36.1909 39.6316L36.4656 40.1526L104.218 22.7528L101.297 16.6229ZM101.297 26.7464L40.1942 42.5736L40.6131 43.2843L103.929 32.423L101.297 26.7464Z" fill="black"/>
<path d="M131.493 44.3903L128.999 30.7303L115.067 33.3236C115.067 33.3236 119.654 46.4064 131.493 44.3903ZM137.345 75.8239C125.507 77.8381 125.826 91.6472 125.826 91.6472L139.838 89.4838L137.345 75.8239ZM13.731 97.1863L16.2228 110.848L30.155 108.253C30.155 108.253 25.5684 95.1721 13.731 97.1882V97.1863ZM75.3454 86.3598C84.0696 84.8743 90.3701 76.217 88.8326 67.7902C87.295 59.3633 78.2381 53.4582 69.5159 54.9436C60.7938 56.4311 54.7679 65.2859 56.3054 73.7147C57.843 82.1396 66.6233 87.8453 75.3454 86.3598ZM8.58312 64.6139C20.4225 62.5977 20.1017 48.7867 20.1017 48.7867L6.08936 50.9539L8.58312 64.6139ZM104.675 25.5049L101.127 16.04L90.7029 19.989C90.7029 19.989 92.9481 28.8884 103.803 26.206C104.07 28.0246 105.888 35.1519 117.816 31.8962C117.85 32.0182 115.709 21.9703 115.709 21.9703L104.675 25.5049Z" fill="white"/>
<path d="M75.3396 85.9628C73.2651 86.3159 71.139 86.2709 69.0826 85.8302C67.0262 85.3895 65.0798 84.5617 63.3545 83.3943C61.6292 82.2268 60.1588 80.7425 59.0272 79.026C57.8957 77.3095 57.1251 75.3945 56.7596 73.3903C56.3941 71.3861 56.4407 69.332 56.8969 67.3452C57.353 65.3584 58.2097 63.4779 59.4181 61.811C60.6265 60.1441 62.1629 58.7235 63.9395 57.6303C65.7161 56.537 67.6983 55.7926 69.7727 55.4394C73.9622 54.7262 78.2733 55.6501 81.7578 58.0079C85.2422 60.3657 87.6144 63.9643 88.3526 68.0119C89.0908 72.0596 88.1345 76.2247 85.6941 79.5912C83.2537 82.9576 79.529 85.2496 75.3396 85.9628ZM76.0352 89.7782C86.9404 87.9189 94.2192 77.8749 92.2967 67.3408C90.3743 56.8049 79.9763 49.7725 69.0731 51.6298C58.1699 53.4872 50.891 63.5332 52.8155 74.0672C54.7359 84.6012 65.132 91.6336 76.0352 89.7782ZM36.8807 39.7265L88.4298 21.5985C88.8347 23.1634 89.5143 24.6004 90.4104 25.869L36.8807 39.7265ZM103.094 22.5843L94.6261 24.7767C93.4124 23.514 92.5822 21.9527 92.2266 20.264L99.1546 17.8276C99.4023 17.7394 99.6656 17.6993 99.9293 17.7095C100.193 17.7197 100.452 17.7801 100.692 17.8871C100.931 17.9941 101.147 18.1457 101.326 18.3333C101.505 18.5208 101.644 18.7405 101.735 18.98L103.094 22.5823V22.5843ZM2.71571 51.9262C2.37769 52.8206 2.29123 53.7856 2.46513 54.7228L12.35 108.882C12.6105 110.3 13.443 111.56 14.6647 112.385C15.8864 113.211 17.3972 113.533 18.865 113.283L138.081 92.9738C138.808 92.8505 139.503 92.5901 140.125 92.2073C140.748 91.8245 141.287 91.3269 141.711 90.743C142.135 90.159 142.436 89.5001 142.596 88.8038C142.756 88.1076 142.773 87.3877 142.645 86.6852L132.762 32.5257C132.501 31.1079 131.669 29.8482 130.447 29.0232C129.226 28.1982 127.715 27.8752 126.247 28.1253L120.865 29.0414L119.564 24.3487C119.151 22.8592 118.144 21.5887 116.762 20.816C115.381 20.0434 113.739 19.8316 112.197 20.2272L106.981 21.5791L105.501 17.6552C105.23 16.9378 104.816 16.279 104.281 15.7164C103.747 15.1539 103.103 14.6986 102.386 14.3766C101.669 14.0547 100.894 13.8723 100.104 13.8401C99.3143 13.8078 98.5258 13.9261 97.7834 14.1884L6.68087 46.2224C5.47919 46.6444 4.44746 47.4246 3.73472 48.4502C3.02198 49.4758 2.66513 50.6937 2.71571 51.9281V51.9262ZM41.2568 42.6026L100.608 27.2383C101.034 28.9833 101.796 30.6356 102.853 32.1093L41.2568 42.6026ZM116.904 29.7154L107.386 31.3365C105.94 29.9335 104.935 28.1644 104.485 26.2331L113.237 23.9671C113.752 23.8376 114.299 23.9101 114.759 24.1688C115.219 24.4275 115.555 24.8514 115.693 25.348L116.904 29.7154ZM116.655 33.6896L126.943 31.9369C127.363 31.8652 127.796 31.9575 128.147 32.1934C128.497 32.4293 128.737 32.7897 128.813 33.1958L130.625 43.1236C127.479 43.6514 124.245 42.9558 121.628 41.1884C119.011 39.4211 117.223 36.7255 116.655 33.6896ZM127.099 90.9092C125.999 84.5954 130.283 78.6302 136.89 77.443L138.698 87.3553C138.734 87.5569 138.729 87.7634 138.683 87.963C138.636 88.1626 138.55 88.3515 138.428 88.5188C138.306 88.6861 138.151 88.8285 137.972 88.9379C137.793 89.0473 137.594 89.1216 137.385 89.1565L127.097 90.9092H127.099ZM28.5394 107.701L18.1694 109.469C17.7485 109.541 17.3153 109.449 16.9645 109.213C16.6137 108.977 16.3738 108.617 16.2971 108.21L14.4889 98.2941C21.1483 97.1805 27.3326 101.379 28.5414 107.701H28.5394ZM18.0973 50.4813C19.2078 56.8262 14.8818 62.8243 8.22444 63.9767L6.41225 54.0508C6.33893 53.6435 6.43606 53.2247 6.6823 52.8865C6.92853 52.5484 7.3037 52.3186 7.72529 52.2477L18.0973 50.4813ZM22.0464 49.8093L112.704 34.3636C113.457 38.4107 115.838 42.0051 119.326 44.3612C122.814 46.7173 127.126 47.6434 131.319 46.9371L136.19 73.6256C132.002 74.3478 128.28 76.6415 125.836 80.0061C123.393 83.3706 122.426 87.5326 123.148 91.5832L32.4885 107.029C31.7301 102.97 29.3346 99.3681 25.8287 97.0148C22.3227 94.6615 17.9931 93.7493 13.7913 94.4787L8.92005 67.7902C13.1283 67.0867 16.875 64.7973 19.3366 61.4255C21.7981 58.0536 22.7728 53.8753 22.0464 49.8093Z" fill="#142142"/>
<path d="M144.936 89.17L120.406 68.0729C119.032 66.8915 117.92 67.3834 117.92 69.1711V81.8181C100.253 81.9595 86.2927 95.9468 86.2927 113.19C86.2927 113.835 86.3408 114.474 86.3829 115.113C86.3789 115.157 86.3809 115.2 86.3809 115.243C86.3809 115.448 86.421 115.642 86.4691 115.831C86.7378 116.868 87.692 117.637 88.8386 117.637C89.7226 117.637 90.4944 117.172 90.9234 116.484C91.0116 116.258 91.0637 116.037 91.16 115.816C94.6641 107.767 103.565 102.015 117.918 101.943V113.443C117.918 115.231 119.032 115.723 120.404 114.542L144.936 93.4483C146.309 92.2669 146.309 90.3515 144.936 89.1681V89.17Z" fill="white"/>
<path d="M144.936 89.1701L120.406 68.0729C119.032 66.8915 117.92 67.3834 117.92 69.1711V81.8181C100.253 81.9595 86.2927 95.9468 86.2927 113.19C86.2927 113.835 86.3408 114.474 86.3829 115.113C86.3809 115.448 86.423 115.642 86.4691 115.831C86.7377 116.868 87.6919 117.637 88.8386 117.637C89.7226 117.637 90.4944 117.172 90.9234 116.484C91.0116 116.258 91.0637 116.037 91.16 115.816C94.6641 107.767 103.565 102.015 117.918 101.943V113.443C117.918 115.231 119.032 115.723 120.404 114.542L144.936 93.4483C146.309 92.2669 146.309 90.3515 144.936 89.1681V89.1701ZM94.8445 117.344C94.7803 117.565 94.7442 117.673 94.6741 117.853C94.5884 118.072 94.4824 118.283 94.3573 118.483C93.7861 119.405 92.9776 120.168 92.0105 120.698C91.0434 121.229 89.9507 121.509 88.8386 121.51C87.3929 121.506 85.9902 121.034 84.8545 120.17C83.7187 119.305 82.9152 118.099 82.5721 116.742C82.4438 116.227 82.3717 115.793 82.3717 115.243C82.3182 114.56 82.2888 113.875 82.2834 113.19C82.2834 95.1043 95.9831 80.2455 113.909 78.1867V69.1711C113.909 64.058 119.101 61.761 123.07 65.1794L147.602 86.2765C148.347 86.9027 148.945 87.6759 149.354 88.5441C149.763 89.4123 149.975 90.3552 149.975 91.3092C149.975 92.2632 149.763 93.2061 149.354 94.0743C148.945 94.9425 148.347 95.7158 147.602 96.3419L123.072 117.431C119.099 120.85 113.911 118.555 113.911 113.442V106.008C104.098 106.924 97.5748 111.067 94.8465 117.342L94.8445 117.344Z" fill="#142142"/>
</svg>
