<svg width="20" height="20" viewBox="0 0 20 20" fill="none" xmlns="http://www.w3.org/2000/svg">
<g clip-path="url(#clip0_47_72)">
<path d="M10.0098 18.1818C7.83007 18.1818 5.78661 17.3182 4.24266 15.7727C1.06395 12.5909 1.06395 7.40909 4.24266 4.18182C5.78661 2.68182 7.83007 1.81818 10.0098 1.81818C12.1894 1.81818 14.2329 2.68182 15.7769 4.22727C18.9556 7.40909 18.9556 12.5909 15.7769 15.8182C14.2329 17.3182 12.1894 18.1818 10.0098 18.1818ZM10.0098 20C12.5527 20 15.1411 19.0455 17.0937 17.0909C20.9536 13.1818 20.9536 6.81818 17.0937 2.90909C15.1411 0.954546 12.5527 0 10.0098 0C7.46679 0 4.8784 0.954544 2.92577 2.90909C-0.979511 6.81818 -0.979511 13.1364 2.92577 17.0455C4.8784 19.0455 7.46679 20 10.0098 20Z" fill="white"/>
<path d="M10.0097 4.77273C10.5093 4.77273 10.918 5.18183 10.918 5.68183V14.3182C10.918 14.8182 10.5093 15.2273 10.0097 15.2273C9.51024 15.2273 9.10155 14.8182 9.10155 14.3182V5.68183C9.10155 5.18183 9.51024 4.77273 10.0097 4.77273Z" fill="white"/>
<path d="M5.69579 9.09091H14.3237C14.8232 9.09091 15.2319 9.5 15.2319 10C15.2319 10.5 14.8232 10.9091 14.3237 10.9091H5.69579C5.19628 10.9091 4.78759 10.5 4.78759 10C4.78759 9.5 5.19628 9.09091 5.69579 9.09091Z" fill="white"/>
</g>
<defs>
<clipPath id="clip0_47_72">
<rect width="20" height="20" fill="white" transform="matrix(-1 0 0 -1 20 20)"/>
</clipPath>
</defs>
</svg>
