<svg width="151" height="142" viewBox="0 0 151 142" fill="none" xmlns="http://www.w3.org/2000/svg">
<ellipse cx="75.5" cy="71" rx="75.5" ry="71" fill="#D2BBFF"/>
<path d="M150.5 71C150.5 109.908 116.951 141.5 75.5 141.5C34.0493 141.5 0.5 109.908 0.5 71C0.5 32.0924 34.0493 0.5 75.5 0.5C116.951 0.5 150.5 32.0924 150.5 71Z" stroke="#A68EDD" stroke-opacity="0.45"/>
<g clip-path="url(#clip0_17_101)">
<path d="M42.6809 48.1122H32.0129C30.9114 48.1122 30.0134 49.1122 30.0134 50.3389V109.728C30.0134 110.955 30.9114 111.955 32.0129 111.955H42.6809V48.1122ZM100.666 62.9528H117.991V50.3389C117.991 49.1122 117.093 48.1122 115.992 48.1122H52.6784V111.955H116.004C117.105 111.955 118.003 110.955 118.003 109.728V97.1143H101.025C93.0514 97.1143 86.131 90.4874 85.4006 81.6337C84.5745 71.4999 91.7463 62.9528 100.666 62.9528Z" fill="#3B5084"/>
<path d="M100.666 86.7139C97.0623 86.7139 94.1888 83.1537 94.7395 79.0202C95.1706 75.7134 97.8645 73.34 100.87 73.34H123.343V86.7006L100.666 86.7139Z" fill="#9EB7F6"/>
<path d="M103.336 77.8068H99.3371C98.2356 77.8068 97.3376 78.8069 97.3376 80.0336C97.3376 81.2603 98.2356 82.2604 99.3371 82.2604H103.336C104.438 82.2604 105.336 81.2603 105.336 80.0336C105.336 78.8069 104.438 77.8068 103.336 77.8068Z" fill="#213562"/>
<path d="M124.326 66.199H100.916C93.9128 66.199 88.2073 72.572 88.2073 80.3939C88.2073 88.2158 93.9128 94.5888 100.916 94.5888H120.975V110.273C120.975 113.157 118.873 115.505 116.291 115.505H54.7788V97.5673C54.7788 96.3329 53.8779 95.3267 52.7728 95.3267C51.6678 95.3267 50.7669 96.3329 50.7669 97.5673V115.492H44.749V105.04C44.749 103.806 43.8482 102.8 42.7431 102.8C41.638 102.8 40.7371 103.806 40.7371 105.04V115.492H32.0407C29.4582 115.492 27.3561 113.144 27.3561 110.259V50.5149C27.3561 47.6303 29.4582 45.2824 32.0407 45.2824H40.7371V75.9127C40.7371 77.147 41.638 78.1533 42.7431 78.1533C43.8482 78.1533 44.749 77.147 44.749 75.9127V45.2824H116.303C118.885 45.2824 120.987 47.6303 120.987 50.5149V57.988C120.987 59.2223 121.888 60.2286 122.993 60.2286C124.098 60.2286 124.999 59.2223 124.999 57.988V50.5149C124.999 45.1616 121.095 40.8012 116.303 40.8012H109.048L105.732 26.982C104.879 23.3997 101.564 21.2665 98.3571 22.2325L58.4904 34.1599C57.4214 34.4819 56.7847 35.7029 57.073 36.9104C57.3613 38.1044 58.4544 38.8155 59.5354 38.4935L99.4022 26.5661C100.471 26.2441 101.576 26.9552 101.865 28.1493L104.904 40.8146H32.0407C27.248 40.8146 23.3442 45.175 23.3442 50.5283V110.286C23.3442 115.64 27.248 120 32.0407 120H116.303C121.095 120 124.999 115.64 124.999 110.286V94.5351C128.002 94.1594 130.344 91.3151 130.344 87.8536V72.9208C130.344 69.2178 127.642 66.199 124.326 66.199ZM126.332 87.867C126.332 89.1013 125.431 90.1076 124.326 90.1076H100.916C96.123 90.1076 92.2192 85.7472 92.2192 80.3939C92.2192 75.0406 96.123 70.6802 100.916 70.6802H124.314C125.419 70.6802 126.32 71.6865 126.32 72.9208L126.332 87.867Z" fill="#213562"/>
<path d="M42.6809 83.7404C41.5794 83.7404 40.6814 84.7404 40.6814 85.9672V94.8742C40.6814 96.1009 41.5794 97.101 42.6809 97.101C43.7824 97.101 44.6804 96.1009 44.6804 94.8742V85.9672C44.6804 84.7404 43.7824 83.7404 42.6809 83.7404ZM50.6789 54.0458V86.7139C50.6789 87.9406 51.5768 88.9406 52.6784 88.9406C53.7799 88.9406 54.6779 87.9406 54.6779 86.7139V54.0458C54.6779 52.819 53.7799 51.819 52.6784 51.819C51.5768 51.819 50.6789 52.819 50.6789 54.0458Z" fill="#213562"/>
<path d="M71.9429 37.7251L99.1935 29.5914L101.145 37.7251H71.9429Z" fill="#62A321"/>
</g>
<defs>
<clipPath id="clip0_17_101">
<rect width="107" height="98" fill="white" transform="translate(23 22)"/>
</clipPath>
</defs>
</svg>
